<svg id="svg" version="1.1" xmlns="http://www.w3.org/2000/svg" xmlns:xlink="http://www.w3.org/1999/xlink" width="400" height="77.20465890183029" viewBox="0, 0, 400,77.20465890183029"><g id="svgg"><path id="path0" d="M214.000 4.249 C 208.620 4.963,205.854 7.965,204.845 14.186 C 204.733 14.877,204.667 18.802,204.667 24.710 C 204.667 33.147,204.639 34.142,204.403 34.232 C 204.258 34.288,203.433 34.333,202.570 34.333 L 201.000 34.333 201.000 37.411 L 201.000 40.489 202.792 40.536 L 204.583 40.583 204.626 56.712 L 204.668 72.840 207.959 72.795 L 211.250 72.750 211.333 56.667 L 211.417 40.583 216.208 40.539 L 221.000 40.495 221.000 37.417 L 221.000 34.338 216.208 34.294 L 211.417 34.250 211.364 25.583 C 211.306 15.968,211.385 14.788,212.205 13.029 C 213.252 10.782,216.286 10.113,219.844 11.345 C 220.355 11.522,220.823 11.667,220.886 11.667 C 221.071 11.667,221.021 5.033,220.835 4.918 C 220.375 4.633,215.991 3.876,215.632 4.019 C 215.605 4.030,214.871 4.133,214.000 4.249 M304.913 20.538 C 304.869 20.655,304.815 23.787,304.792 27.500 L 304.750 34.250 302.792 34.297 L 300.833 34.344 300.833 37.417 L 300.833 40.489 302.792 40.536 L 304.750 40.583 304.833 56.667 L 304.917 72.750 308.167 72.750 L 311.417 72.750 311.500 56.667 L 311.583 40.583 314.917 40.500 L 318.250 40.417 318.295 37.378 L 318.341 34.340 314.962 34.295 L 311.583 34.250 311.500 27.333 L 311.417 20.417 308.204 20.371 C 305.725 20.336,304.974 20.374,304.913 20.538 M338.583 33.521 C 332.337 34.301,326.954 38.441,324.416 44.417 C 324.260 44.783,324.069 45.233,323.991 45.417 C 321.861 50.410,322.361 58.685,325.119 64.080 C 330.568 74.739,344.712 77.278,352.958 69.077 L 354.333 67.710 354.336 69.896 C 354.339 73.161,353.957 72.833,357.762 72.833 L 360.985 72.833 361.081 72.292 C 361.135 71.994,361.157 63.350,361.131 53.083 L 361.083 34.417 357.750 34.417 L 354.417 34.417 354.371 36.957 L 354.325 39.498 353.070 38.264 C 349.111 34.368,344.331 32.803,338.583 33.521 M240.750 33.603 C 233.342 34.719,227.972 39.171,225.694 46.083 C 225.380 47.033,225.247 47.589,224.842 49.638 C 224.746 50.126,224.667 51.901,224.667 53.583 C 224.667 55.265,224.746 57.041,224.842 57.529 C 225.237 59.526,225.388 60.139,225.770 61.299 C 227.774 67.395,232.533 71.884,238.500 73.308 C 244.047 74.632,250.075 73.672,254.404 70.776 C 256.726 69.222,261.167 64.102,261.167 62.978 C 261.167 62.841,255.959 59.833,255.722 59.833 C 255.637 59.833,255.088 60.527,254.502 61.375 C 252.530 64.229,249.852 66.550,247.784 67.194 C 241.823 69.052,235.747 66.579,233.181 61.250 C 232.275 59.369,231.557 56.557,231.691 55.417 L 231.750 54.917 246.667 54.833 L 261.583 54.750 261.560 52.667 C 261.454 43.378,256.263 36.123,248.250 34.064 C 246.615 33.644,242.255 33.376,240.750 33.603 M280.164 33.656 C 274.685 34.667,271.100 38.940,271.118 44.437 C 271.134 49.169,273.493 51.628,281.333 55.089 C 287.001 57.592,288.304 58.789,288.360 61.548 C 288.446 65.816,284.841 68.565,280.417 67.605 C 277.962 67.072,276.768 65.907,274.672 62.000 C 274.536 61.745,273.749 61.736,273.419 61.986 C 273.326 62.056,272.250 62.511,271.027 62.997 C 268.400 64.042,268.448 63.968,269.293 65.712 C 271.057 69.351,272.938 71.209,276.667 72.996 C 276.804 73.062,277.329 73.212,277.833 73.329 C 278.337 73.446,278.967 73.607,279.233 73.687 C 279.926 73.897,284.016 73.868,284.956 73.647 C 291.358 72.142,295.171 67.497,295.165 61.211 C 295.160 55.730,292.369 52.645,284.667 49.602 C 282.464 48.732,279.999 47.527,279.282 46.969 C 275.666 44.157,277.776 39.434,282.531 39.697 C 284.415 39.801,285.848 40.746,286.934 42.598 C 287.461 43.496,287.051 43.576,290.089 41.986 C 293.076 40.424,292.981 40.519,292.499 39.581 C 290.230 35.170,285.159 32.734,280.164 33.656 M382.417 33.607 C 376.324 34.555,372.286 39.860,373.144 45.790 C 373.636 49.197,375.475 51.227,380.250 53.636 C 381.809 54.423,382.426 54.710,385.417 56.043 C 390.271 58.208,391.790 61.911,389.210 65.291 C 386.081 69.390,380.246 68.497,377.467 63.493 C 376.324 61.434,376.450 61.504,375.015 62.137 C 374.686 62.282,373.593 62.742,372.585 63.158 C 370.455 64.040,370.446 64.057,371.187 65.614 C 373.754 71.006,377.608 73.588,383.391 73.791 C 391.521 74.076,397.083 68.982,397.083 61.250 C 397.083 55.456,394.360 52.593,385.583 49.161 C 381.256 47.470,379.499 45.943,379.501 43.880 C 379.507 38.972,386.520 38.031,388.893 42.620 C 389.298 43.403,389.415 43.378,392.167 41.923 C 395.169 40.334,395.103 40.465,393.855 38.616 C 391.234 34.732,387.027 32.890,382.417 33.607 M246.065 39.829 C 249.877 40.804,252.835 43.740,254.165 47.870 C 254.363 48.486,254.478 49.067,254.420 49.162 C 254.234 49.462,232.346 49.394,232.230 49.092 C 232.114 48.790,232.558 47.243,233.085 46.111 C 234.674 42.700,237.642 40.429,241.583 39.608 C 242.540 39.409,244.873 39.524,246.065 39.829 M345.664 39.997 C 353.174 42.160,356.903 51.203,353.750 59.603 C 349.515 70.882,334.280 70.446,330.417 58.935 C 326.599 47.556,335.128 36.962,345.664 39.997 " stroke="none" fill="#fbf9f9" fill-rule="evenodd"></path><path id="path1" d="M3.667 39.080 L 3.667 72.833 6.899 72.833 C 10.702 72.833,10.333 73.121,10.333 70.153 C 10.333 67.643,10.282 67.683,11.671 69.099 C 16.138 73.651,22.612 75.020,29.655 72.901 C 41.173 69.435,45.904 51.694,38.202 40.847 C 32.918 33.403,21.646 31.153,14.265 36.068 C 13.198 36.778,10.667 38.965,10.667 39.175 C 10.667 39.262,10.592 39.333,10.501 39.333 C 10.392 39.333,10.320 33.487,10.292 22.375 L 10.250 5.417 6.958 5.371 L 3.667 5.326 3.667 39.080 M114.083 33.507 C 106.419 34.521,100.584 39.952,98.691 47.833 C 98.210 49.836,98.112 50.806,98.112 53.583 C 98.111 56.386,98.169 56.945,98.694 59.167 C 102.048 73.369,118.668 78.881,128.404 69.019 C 129.851 67.553,129.833 67.535,129.833 70.430 L 129.833 72.840 133.125 72.795 L 136.417 72.750 136.459 53.542 L 136.501 34.333 133.167 34.333 L 129.833 34.333 129.833 36.653 C 129.833 39.640,129.826 39.656,128.890 38.656 C 125.143 34.649,119.713 32.761,114.083 33.507 M67.000 33.653 C 53.370 35.609,45.624 50.427,51.790 62.750 C 59.556 78.269,82.688 77.336,88.955 61.250 C 90.052 58.434,90.250 57.276,90.250 53.667 C 90.250 50.543,90.154 49.777,89.473 47.500 C 86.700 38.219,76.968 32.223,67.000 33.653 M157.833 33.599 C 152.121 34.625,148.500 38.764,148.500 44.268 C 148.500 49.346,150.642 51.534,159.407 55.413 C 164.465 57.651,165.681 58.863,165.699 61.687 C 165.725 65.740,162.311 68.430,158.114 67.664 C 155.612 67.208,153.630 65.415,152.266 62.374 C 151.876 61.503,152.042 61.494,149.516 62.518 C 145.471 64.158,145.766 63.822,146.674 65.750 C 148.474 69.572,151.527 72.319,155.083 73.315 C 164.209 75.872,172.523 70.134,172.563 61.250 C 172.590 55.462,170.405 53.206,160.715 49.020 C 155.319 46.688,153.815 44.775,155.229 42.040 C 157.012 38.593,161.748 38.865,164.295 42.561 L 164.839 43.351 167.288 42.072 C 170.686 40.297,170.379 40.578,169.914 39.662 C 167.688 35.268,162.642 32.736,157.833 33.599 M120.750 39.887 C 126.689 41.588,130.199 46.548,130.206 53.250 C 130.216 62.713,123.668 69.050,115.387 67.593 C 103.280 65.462,100.920 46.364,112.071 40.756 C 114.524 39.523,118.194 39.155,120.750 39.887 M25.590 39.918 C 38.799 43.265,38.069 65.163,24.667 67.600 C 14.567 69.435,7.117 59.075,10.632 48.083 C 12.525 42.166,19.479 38.370,25.590 39.918 M73.167 39.923 C 86.434 42.998,87.176 63.203,74.167 67.131 C 64.874 69.937,56.633 63.613,56.619 53.667 C 56.606 44.227,64.270 37.861,73.167 39.923 " stroke="none" fill="#050404" fill-rule="evenodd"></path></g></svg>