<svg id="svg" version="1.1" xmlns="http://www.w3.org/2000/svg" xmlns:xlink="http://www.w3.org/1999/xlink" width="400" height="68.23027718550107" viewBox="0, 0, 400,68.23027718550107"><g id="svgg"><path id="path0" d="M98.353 2.296 C 98.078 2.811,98.054 65.563,98.330 66.000 C 98.458 66.204,99.051 66.259,101.566 66.302 L 104.645 66.354 104.822 65.719 C 104.940 65.292,104.998 59.890,104.999 49.305 C 105.000 40.627,105.046 33.409,105.101 33.264 C 105.187 33.039,105.580 33.000,107.726 32.998 C 111.600 32.994,111.500 33.091,111.500 29.367 C 111.500 26.082,111.703 26.267,108.027 26.197 C 106.132 26.160,105.216 26.081,105.130 25.947 C 105.061 25.838,105.004 20.688,105.002 14.500 C 104.999 7.224,104.937 3.029,104.825 2.625 L 104.651 2.000 101.581 2.000 C 98.812 2.000,98.496 2.029,98.353 2.296 M55.667 26.112 C 49.918 26.994,46.130 29.130,42.268 33.667 C 41.940 34.052,41.667 34.454,40.601 36.125 C 40.382 36.469,40.114 37.031,40.005 37.375 C 39.896 37.719,39.741 38.000,39.660 38.000 C 39.579 38.000,39.431 38.319,39.332 38.708 C 39.232 39.098,39.011 39.754,38.840 40.167 C 38.670 40.579,38.480 41.292,38.418 41.750 C 38.357 42.208,38.200 43.173,38.070 43.893 C 37.530 46.886,38.414 52.831,39.698 54.833 C 39.845 55.063,40.020 55.438,40.086 55.667 C 40.513 57.142,43.628 61.007,45.594 62.500 C 47.052 63.607,48.842 64.718,49.489 64.917 C 49.711 64.986,50.124 65.182,50.405 65.354 C 50.687 65.525,51.052 65.666,51.217 65.666 C 51.383 65.666,51.837 65.812,52.227 65.989 C 52.631 66.173,53.956 66.448,55.306 66.629 L 57.677 66.945 58.088 66.564 C 58.497 66.186,58.499 66.166,58.410 63.892 C 58.289 60.790,58.293 60.797,56.378 60.560 C 54.954 60.383,53.504 59.953,52.500 59.408 C 50.929 58.557,50.488 58.275,49.725 57.636 C 48.293 56.435,46.465 53.941,46.085 52.667 C 46.016 52.438,45.827 51.950,45.665 51.583 C 44.059 47.960,45.067 40.661,47.620 37.417 C 48.635 36.127,50.974 34.000,51.377 34.000 C 51.476 34.000,51.675 33.896,51.820 33.768 C 53.603 32.198,60.279 31.709,63.203 32.934 C 63.728 33.154,64.260 33.333,64.386 33.333 C 64.512 33.333,64.747 33.479,64.908 33.657 C 65.069 33.835,65.426 34.030,65.700 34.091 C 66.363 34.236,69.583 37.423,69.939 38.285 C 70.083 38.633,70.296 39.029,70.414 39.167 C 70.531 39.304,70.683 39.604,70.750 39.833 C 70.818 40.063,71.059 40.648,71.286 41.134 C 71.647 41.906,71.674 42.081,71.496 42.509 L 71.293 43.000 65.021 43.003 C 61.369 43.004,58.646 43.071,58.500 43.163 C 58.076 43.430,58.036 49.164,58.455 49.543 C 58.730 49.791,59.495 49.831,65.340 49.905 C 68.957 49.951,72.404 50.038,73.000 50.097 C 73.919 50.189,77.064 49.975,78.280 49.737 C 79.197 49.558,79.460 46.656,78.837 43.588 C 78.744 43.127,78.559 42.188,78.427 41.500 C 78.166 40.145,77.530 38.189,77.229 37.816 C 77.125 37.688,76.987 37.396,76.920 37.167 C 76.854 36.938,76.620 36.469,76.400 36.125 C 76.180 35.781,75.796 35.181,75.546 34.792 C 74.889 33.767,73.236 31.844,72.431 31.167 C 72.049 30.846,71.627 30.491,71.493 30.377 C 70.887 29.864,69.650 29.000,69.521 29.000 C 69.443 29.000,69.199 28.862,68.981 28.694 C 68.568 28.376,67.059 27.689,65.126 26.940 C 64.509 26.700,63.384 26.426,62.626 26.331 C 61.869 26.237,60.875 26.090,60.417 26.006 C 59.241 25.790,57.512 25.829,55.667 26.112 M147.917 26.076 C 147.825 26.116,146.937 26.228,145.944 26.323 C 144.884 26.425,143.841 26.628,143.420 26.815 C 143.025 26.990,142.464 27.185,142.174 27.248 C 141.146 27.474,138.376 28.920,136.964 29.968 C 135.217 31.265,132.816 33.856,131.816 35.525 C 130.830 37.170,129.667 39.671,129.667 40.146 C 129.667 40.345,129.513 40.938,129.326 41.462 C 128.609 43.470,128.555 49.822,129.243 51.153 C 129.379 51.416,129.540 51.958,129.601 52.358 C 129.818 53.792,131.248 56.623,132.869 58.828 C 133.424 59.583,135.802 62.003,136.523 62.547 C 139.345 64.677,142.808 66.173,145.677 66.502 C 149.437 66.935,149.393 66.971,149.308 63.485 C 149.237 60.565,149.342 60.717,147.253 60.500 C 146.345 60.406,145.431 60.218,145.223 60.081 C 145.015 59.945,144.699 59.833,144.520 59.833 C 143.292 59.833,138.167 55.874,138.167 54.925 C 138.167 54.805,138.064 54.622,137.938 54.518 C 136.454 53.286,135.171 46.788,135.812 43.748 C 136.573 40.143,138.077 37.347,140.204 35.583 C 140.646 35.217,141.141 34.800,141.305 34.657 C 141.820 34.207,143.202 33.487,144.583 32.948 L 145.917 32.427 149.250 32.435 C 154.379 32.446,158.051 34.183,160.225 37.627 C 160.460 38.000,160.726 38.350,160.814 38.405 C 160.903 38.460,161.066 38.785,161.176 39.127 C 161.286 39.470,161.488 39.879,161.625 40.036 C 161.762 40.193,161.970 40.718,162.087 41.202 C 162.204 41.687,162.420 42.530,162.567 43.077 C 162.798 43.938,162.833 45.470,162.833 54.593 C 162.833 61.804,162.891 65.282,163.016 65.642 L 163.199 66.167 166.344 66.167 C 169.339 66.167,169.497 66.150,169.670 65.826 C 170.060 65.098,169.800 43.100,169.386 41.833 C 169.192 41.237,168.982 40.454,168.920 40.093 C 168.857 39.731,168.668 39.169,168.500 38.843 C 168.331 38.517,167.946 37.725,167.645 37.083 C 167.343 36.442,166.925 35.705,166.715 35.446 C 166.505 35.186,166.333 34.886,166.332 34.779 C 166.328 34.057,160.888 29.000,160.116 29.000 C 159.989 29.000,159.752 28.853,159.589 28.673 C 159.426 28.493,159.021 28.259,158.688 28.153 C 158.356 28.046,157.849 27.819,157.564 27.646 C 157.278 27.474,156.919 27.333,156.767 27.333 C 156.615 27.333,156.054 27.150,155.520 26.925 C 154.322 26.421,148.591 25.781,147.917 26.076 M17.870 27.184 C 16.836 27.356,15.786 27.601,15.537 27.728 C 15.287 27.856,14.821 28.015,14.500 28.083 C 14.179 28.151,13.610 28.385,13.235 28.604 C 12.861 28.822,12.460 29.000,12.344 29.000 C 12.229 29.000,11.898 29.169,11.609 29.375 C 11.320 29.581,10.885 29.862,10.642 30.000 C 8.443 31.247,5.786 33.929,4.204 36.500 C 3.632 37.430,2.500 39.765,2.499 40.019 C 2.498 40.146,2.385 40.467,2.246 40.733 C 1.185 42.768,0.504 65.634,1.489 66.161 C 2.053 66.463,7.757 66.385,8.071 66.071 C 8.370 65.773,8.392 63.422,8.190 53.167 C 8.128 50.004,8.127 46.967,8.187 46.417 C 8.501 43.574,8.713 42.379,8.988 41.921 C 9.154 41.644,9.343 41.196,9.406 40.927 C 9.470 40.657,9.667 40.233,9.844 39.984 C 10.022 39.736,10.167 39.457,10.167 39.364 C 10.167 38.934,12.618 36.283,13.698 35.544 C 15.266 34.474,15.770 34.183,16.250 34.074 C 16.525 34.012,16.933 33.846,17.157 33.706 C 17.380 33.566,18.355 33.349,19.323 33.225 C 21.716 32.918,21.667 32.989,21.667 29.841 C 21.667 26.498,21.730 26.542,17.870 27.184 M196.917 56.314 C 195.838 56.601,193.695 58.518,193.657 59.232 C 193.651 59.334,193.588 59.771,193.517 60.204 C 192.800 64.556,197.332 67.528,201.030 65.131 C 205.543 62.207,202.146 54.926,196.917 56.314 " stroke="none" fill="#fbf4f4" fill-rule="evenodd"></path><path id="path1" d="M326.365 2.415 C 325.757 3.187,325.772 65.344,326.381 65.952 C 326.827 66.400,332.154 66.501,332.512 66.068 C 332.714 65.826,332.757 63.316,332.795 49.605 C 332.825 38.819,332.897 33.370,333.011 33.255 C 333.108 33.158,334.412 33.047,336.021 33.000 C 339.604 32.895,339.333 33.189,339.333 29.395 C 339.333 25.944,339.660 26.266,336.083 26.194 C 334.525 26.163,333.175 26.065,333.083 25.977 C 332.977 25.875,332.887 21.610,332.833 14.184 C 332.765 4.661,332.709 2.501,332.521 2.275 C 332.089 1.755,326.790 1.875,326.365 2.415 M375.667 26.018 C 375.254 26.099,374.286 26.244,373.515 26.341 C 372.744 26.437,371.804 26.657,371.426 26.829 C 371.048 27.001,370.516 27.196,370.244 27.262 C 369.972 27.327,369.413 27.558,369.001 27.774 C 368.590 27.990,368.167 28.167,368.063 28.167 C 367.959 28.167,367.772 28.290,367.647 28.441 C 367.522 28.591,367.144 28.835,366.807 28.982 C 365.017 29.765,359.833 35.085,359.833 36.139 C 359.833 36.277,359.709 36.527,359.558 36.695 C 359.244 37.041,358.573 38.556,358.240 39.667 C 358.117 40.079,357.851 40.904,357.649 41.500 C 357.048 43.269,357.081 49.720,357.699 51.500 C 357.938 52.188,358.184 52.973,358.246 53.245 C 358.358 53.739,359.046 55.360,359.345 55.833 C 359.431 55.971,359.592 56.271,359.702 56.500 C 360.286 57.719,362.536 60.527,363.776 61.583 C 364.206 61.950,364.722 62.405,364.922 62.593 C 365.436 63.079,366.853 64.000,367.086 64.000 C 367.194 64.000,367.415 64.147,367.578 64.327 C 367.740 64.507,368.146 64.742,368.478 64.849 C 368.811 64.956,369.165 65.108,369.265 65.187 C 370.213 65.934,376.105 67.094,377.131 66.735 C 377.677 66.544,377.825 65.472,377.674 62.800 C 377.563 60.820,377.557 60.813,375.588 60.563 C 374.721 60.454,373.773 60.244,373.480 60.098 C 373.188 59.953,372.854 59.833,372.738 59.833 C 372.405 59.833,370.378 58.711,369.439 58.007 C 368.639 57.406,368.364 57.150,367.514 56.214 C 366.706 55.325,365.265 52.827,365.084 52.001 C 365.019 51.706,364.805 51.117,364.608 50.691 C 363.729 48.787,364.212 42.142,365.391 39.917 C 365.488 39.733,365.687 39.358,365.833 39.083 C 366.345 38.120,367.042 37.080,367.419 36.717 C 367.628 36.516,367.826 36.286,367.858 36.206 C 367.960 35.954,370.376 34.000,370.587 34.000 C 370.698 34.000,370.973 33.855,371.199 33.677 C 371.425 33.499,371.829 33.299,372.096 33.232 C 372.364 33.165,372.885 32.977,373.253 32.814 C 375.002 32.042,380.245 32.063,382.239 32.851 C 386.588 34.569,390.142 38.351,390.611 41.761 C 390.785 43.034,390.967 43.000,384.081 43.000 L 378.019 43.000 377.759 43.370 C 377.328 43.986,377.382 49.175,377.823 49.574 C 378.118 49.841,378.706 49.871,384.365 49.911 C 387.785 49.936,391.317 50.014,392.214 50.086 C 393.577 50.195,394.009 50.166,394.853 49.911 C 395.662 49.666,395.991 49.640,396.514 49.780 C 398.211 50.233,398.413 49.797,398.288 45.949 C 398.214 43.680,398.123 42.862,397.847 42.020 C 397.656 41.435,397.500 40.685,397.500 40.352 C 397.500 39.414,397.233 38.699,396.590 37.914 C 396.266 37.518,396.000 37.126,396.000 37.042 C 396.000 36.893,395.539 36.141,394.349 34.347 C 392.898 32.161,390.604 30.004,388.490 28.840 C 387.209 28.134,385.534 27.348,385.073 27.237 C 384.804 27.172,384.320 26.988,383.998 26.827 C 383.676 26.666,382.964 26.483,382.415 26.421 C 381.866 26.358,380.827 26.201,380.107 26.070 C 378.667 25.810,376.831 25.788,375.667 26.018 M239.250 26.193 C 236.201 26.525,234.249 27.165,231.167 28.841 C 230.557 29.173,230.378 29.296,228.812 30.465 C 227.209 31.661,225.057 34.095,224.141 35.750 C 222.944 37.911,222.002 40.159,221.803 41.333 C 221.717 41.837,221.539 42.796,221.407 43.463 C 221.275 44.130,221.167 45.459,221.167 46.417 C 221.167 47.374,221.275 48.703,221.407 49.370 C 221.539 50.037,221.717 50.996,221.803 51.500 C 222.002 52.674,222.944 54.922,224.141 57.083 C 224.888 58.432,226.886 60.797,228.082 61.750 C 228.428 62.025,228.945 62.442,229.230 62.676 C 230.047 63.345,231.327 64.142,232.330 64.604 C 232.836 64.838,233.384 65.100,233.548 65.186 C 235.180 66.049,240.426 67.045,241.206 66.641 C 241.641 66.415,241.710 65.885,241.640 63.335 C 241.565 60.582,241.616 60.661,239.778 60.493 C 239.002 60.423,238.115 60.253,237.808 60.117 C 237.501 59.981,236.892 59.776,236.454 59.662 C 236.016 59.548,235.617 59.388,235.568 59.308 C 235.518 59.228,235.164 59.002,234.781 58.807 C 232.929 57.862,229.500 54.029,229.500 52.904 C 229.500 52.837,229.319 52.400,229.098 51.933 C 228.835 51.375,228.578 50.280,228.351 48.745 L 228.005 46.407 228.344 44.093 C 228.564 42.590,228.822 41.482,229.081 40.931 C 229.299 40.465,229.529 39.877,229.591 39.625 C 229.652 39.373,229.756 39.167,229.821 39.167 C 229.885 39.167,230.072 38.885,230.236 38.542 C 230.878 37.195,233.443 34.636,234.826 33.962 C 235.151 33.803,235.529 33.606,235.667 33.523 C 237.608 32.352,243.744 31.877,245.750 32.743 C 246.117 32.901,246.764 33.137,247.188 33.266 C 247.613 33.395,248.047 33.606,248.154 33.734 C 248.260 33.862,248.546 34.017,248.788 34.078 C 249.287 34.203,249.893 34.670,251.288 36.002 C 252.775 37.423,253.598 38.716,254.496 41.044 C 255.234 42.956,255.327 44.537,255.330 55.338 C 255.333 64.195,255.365 65.471,255.593 65.796 C 255.845 66.156,255.939 66.167,258.922 66.167 L 261.992 66.167 262.264 65.752 C 263.018 64.601,262.340 42.070,261.504 40.508 C 261.397 40.307,261.199 39.719,261.064 39.201 C 260.929 38.683,260.718 38.145,260.596 38.005 C 260.473 37.865,260.316 37.563,260.246 37.336 C 260.176 37.108,259.959 36.658,259.763 36.336 C 259.567 36.013,259.334 35.630,259.245 35.483 C 258.246 33.835,256.587 31.956,255.083 30.770 C 254.442 30.263,253.681 29.658,253.394 29.424 C 253.106 29.191,252.762 29.000,252.628 29.000 C 252.494 29.000,252.252 28.853,252.089 28.673 C 251.926 28.493,251.521 28.260,251.188 28.154 C 250.856 28.049,250.428 27.865,250.237 27.746 C 250.047 27.627,249.522 27.418,249.070 27.280 C 248.619 27.143,247.984 26.917,247.658 26.777 C 247.040 26.512,242.589 25.983,241.318 26.024 C 240.914 26.037,239.983 26.113,239.250 26.193 M301.400 27.171 C 300.383 27.333,299.330 27.579,299.061 27.718 C 298.792 27.858,298.293 28.024,297.951 28.088 C 297.610 28.152,297.156 28.341,296.944 28.508 C 296.731 28.676,296.338 28.867,296.070 28.933 C 295.802 28.999,295.351 29.228,295.068 29.443 C 294.784 29.658,294.497 29.833,294.431 29.833 C 294.309 29.833,292.965 30.711,292.500 31.095 C 291.087 32.259,288.906 34.663,287.975 36.083 C 287.083 37.443,285.667 40.495,285.667 41.056 C 285.667 41.202,285.498 41.755,285.292 42.285 L 284.917 43.250 284.917 54.750 L 284.917 66.250 288.212 66.295 C 290.758 66.330,291.526 66.292,291.589 66.129 C 291.633 66.012,291.688 61.042,291.710 55.083 L 291.750 44.250 292.224 42.833 C 292.657 41.542,293.607 39.371,293.829 39.167 C 293.879 39.121,294.117 38.783,294.357 38.417 C 294.969 37.485,296.277 36.153,297.167 35.557 C 298.868 34.416,299.273 34.182,299.750 34.067 C 300.025 34.001,300.512 33.812,300.833 33.648 C 301.170 33.476,302.117 33.279,303.070 33.182 C 305.297 32.958,305.238 33.040,305.303 30.119 C 305.385 26.477,305.449 26.525,301.400 27.171 " stroke="none" fill="#2a1c20" fill-rule="evenodd"></path></g></svg>